<svg version="1" xmlns="http://www.w3.org/2000/svg" width="810.667" height="810.667" viewBox="0 0 608.000000 608.000000"><path d="M196 52.7c-22.8 11.2-45.8 22.6-51 25.2l-9.5 4.8v484.8l51.3.3 51.2.2.1-3.2v-11l-.2-7.8 6.5 4.9c16.3 12.3 34.8 20.1 56.1 23.5 10.5 1.7 34.2 1.5 45.5-.3 53.6-8.7 94.5-46.8 113.5-106 2-6 3.8-11.7 4-12.8.2-1 1-4.7 1.9-8.3 1.8-7.9 4.3-22.5 5-30 1.7-17.2 2-21.9 2-36-.1-41.7-5.1-75.5-15.6-105-5.5-15.7-15-34.7-20.9-42.2-1.6-2-2.9-3.9-2.9-4.2 0-2.3-16.5-19.4-27.1-28.1-13.2-10.8-40.2-22.7-56.9-25-1.4-.2-5.4-.8-9-1.3-3.5-.5-12.1-1-19-1-21.8 0-38.3 4-57 14-6.2 3.3-20.3 12.7-22 14.7-.3.3-1.3 1.2-2.2 1.9-1.6 1.2-1.7-4.3-1.7-85.4 0-47.6-.2-86.8-.3-86.9-.2-.2-19 8.9-41.8 20.2zm121.5 218.9c25.7 6.5 42.8 32.3 48.5 73.2 5.6 40.2 1.6 81.6-10.2 104.7-4.2 8.3-6.3 11.2-12.3 17-12.2 11.7-25.8 15.4-48 13.2-10.2-1.1-17.9-3.3-28-8.2-10.2-4.9-18-10.8-24.7-18.6l-4.7-5.4v-146l5.9-6.6c10.3-11.4 20.3-18.1 32.7-21.9 12.9-3.9 28.8-4.5 40.8-1.4z"/></svg>